G75*
G70*
%OFA0B0*%
%FSLAX24Y24*%
%IPPOS*%
%LPD*%
%AMOC8*
5,1,8,0,0,1.08239X$1,22.5*
%
%ADD10R,0.0360X0.0700*%
%ADD11R,0.0472X0.0472*%
%ADD12R,0.0394X0.0433*%
%ADD13R,0.0630X0.0138*%
%ADD14R,0.0472X0.0217*%
%ADD15R,0.0768X0.0591*%
D10*
X004200Y011250D03*
X004700Y011250D03*
X005200Y011250D03*
X005700Y011250D03*
X005700Y013450D03*
X005200Y013450D03*
X004700Y013450D03*
X004200Y013450D03*
X008700Y013450D03*
X009200Y013450D03*
X009700Y013450D03*
X010200Y013450D03*
X010200Y011250D03*
X009700Y011250D03*
X009200Y011250D03*
X008700Y011250D03*
X013200Y011250D03*
X013700Y011250D03*
X014200Y011250D03*
X014700Y011250D03*
X014700Y013450D03*
X014200Y013450D03*
X013700Y013450D03*
X013200Y013450D03*
X017700Y013450D03*
X018200Y013450D03*
X018700Y013450D03*
X019200Y013450D03*
X019200Y011250D03*
X018700Y011250D03*
X018200Y011250D03*
X017700Y011250D03*
D11*
X017837Y016350D03*
X018663Y016350D03*
X018663Y017350D03*
X017837Y017350D03*
D12*
X017085Y017350D03*
X016415Y017350D03*
X016415Y016350D03*
X017085Y016350D03*
X015500Y012435D03*
X015500Y011765D03*
X011000Y011765D03*
X011000Y012435D03*
X006500Y012435D03*
X006500Y011765D03*
X004785Y018050D03*
X004115Y018050D03*
X020000Y012435D03*
X020000Y011765D03*
D13*
X006352Y015654D03*
X006352Y015910D03*
X006352Y016166D03*
X006352Y016422D03*
X006352Y016678D03*
X006352Y016934D03*
X006352Y017190D03*
X006352Y017446D03*
X004148Y017446D03*
X004148Y017190D03*
X004148Y016934D03*
X004148Y016678D03*
X004148Y016422D03*
X004148Y016166D03*
X004148Y015910D03*
X004148Y015654D03*
D14*
X013638Y016176D03*
X013638Y016550D03*
X013638Y016924D03*
X014662Y016924D03*
X014662Y016176D03*
D15*
X014691Y017650D03*
X013609Y017650D03*
M02*
