G75*
G70*
%OFA0B0*%
%FSLAX24Y24*%
%IPPOS*%
%LPD*%
%AMOC8*
5,1,8,0,0,1.08239X$1,22.5*
%
%ADD10C,0.0100*%
%ADD11C,0.0030*%
%ADD12C,0.0040*%
%ADD13C,0.0080*%
%ADD14C,0.0050*%
%ADD15C,0.0000*%
%ADD16C,0.0060*%
%ADD17R,0.0200X0.0200*%
%ADD18R,0.0079X0.0079*%
D10*
X000150Y000150D02*
X000150Y020150D01*
X022650Y020150D01*
X022650Y000150D01*
X000150Y000150D01*
D11*
X003515Y007865D02*
X003515Y008112D01*
X003515Y007988D02*
X003885Y007988D01*
X003823Y008233D02*
X003885Y008295D01*
X003885Y008418D01*
X003823Y008480D01*
X003885Y008602D02*
X003885Y008849D01*
X003885Y008725D02*
X003515Y008725D01*
X003638Y008602D01*
X003576Y008480D02*
X003515Y008418D01*
X003515Y008295D01*
X003576Y008233D01*
X003823Y008233D01*
X003315Y011365D02*
X003315Y011612D01*
X003315Y011733D02*
X003685Y011733D01*
X003685Y011980D01*
X003685Y012102D02*
X003315Y012102D01*
X003438Y012225D01*
X003315Y012349D01*
X003685Y012349D01*
X003685Y012470D02*
X003315Y012470D01*
X003315Y012655D01*
X003376Y012717D01*
X003500Y012717D01*
X003562Y012655D01*
X003562Y012470D01*
X003685Y012838D02*
X003685Y013085D01*
X003685Y012962D02*
X003315Y012962D01*
X003438Y012838D01*
X003315Y011980D02*
X003315Y011733D01*
X003500Y011733D02*
X003500Y011857D01*
X003685Y011488D02*
X003315Y011488D01*
X006395Y012813D02*
X006443Y012765D01*
X006637Y012765D01*
X006685Y012813D01*
X006685Y012910D01*
X006637Y012958D01*
X006685Y013060D02*
X006685Y013253D01*
X006685Y013156D02*
X006395Y013156D01*
X006492Y013060D01*
X006443Y012958D02*
X006395Y012910D01*
X006395Y012813D01*
X007815Y012900D02*
X007876Y012838D01*
X007815Y012900D02*
X007815Y013023D01*
X007876Y013085D01*
X007938Y013085D01*
X008185Y012838D01*
X008185Y013085D01*
X008000Y012717D02*
X007876Y012717D01*
X007815Y012655D01*
X007815Y012470D01*
X008185Y012470D01*
X008185Y012349D02*
X007815Y012349D01*
X007938Y012225D01*
X007815Y012102D01*
X008185Y012102D01*
X008185Y011980D02*
X008185Y011733D01*
X007815Y011733D01*
X007815Y011980D01*
X008000Y011857D02*
X008000Y011733D01*
X007815Y011612D02*
X007815Y011365D01*
X007815Y011488D02*
X008185Y011488D01*
X008062Y012470D02*
X008062Y012655D01*
X008000Y012717D01*
X007595Y014751D02*
X007508Y014751D01*
X007333Y014925D01*
X007333Y015013D01*
X007421Y015100D01*
X007508Y015100D01*
X007594Y015186D02*
X007594Y015273D01*
X007681Y015360D01*
X007768Y015360D01*
X007898Y015402D02*
X007898Y015577D01*
X008160Y015315D01*
X008072Y015228D02*
X008247Y015402D01*
X008421Y015100D02*
X008333Y015013D01*
X008333Y014925D01*
X008508Y014751D01*
X008595Y014751D01*
X008682Y014838D01*
X008682Y014925D01*
X008768Y015011D02*
X008856Y015011D01*
X008943Y015098D01*
X008943Y015186D01*
X008899Y015229D01*
X008812Y015229D01*
X008725Y015142D01*
X008637Y015142D01*
X008594Y015186D01*
X008594Y015273D01*
X008681Y015360D01*
X008768Y015360D01*
X008854Y015446D02*
X008854Y015533D01*
X008941Y015621D01*
X009029Y015621D01*
X009072Y015577D01*
X009072Y015490D01*
X009160Y015490D01*
X009203Y015446D01*
X009203Y015359D01*
X009116Y015272D01*
X009029Y015272D01*
X009029Y015446D02*
X009072Y015490D01*
X008508Y015100D02*
X008421Y015100D01*
X007943Y015098D02*
X007856Y015011D01*
X007768Y015011D01*
X007682Y014925D02*
X007682Y014838D01*
X007595Y014751D01*
X007637Y015142D02*
X007725Y015142D01*
X007812Y015229D01*
X007899Y015229D01*
X007943Y015186D01*
X007943Y015098D01*
X007637Y015142D02*
X007594Y015186D01*
X009594Y015186D02*
X009637Y015142D01*
X009725Y015142D01*
X009812Y015229D01*
X009899Y015229D01*
X009943Y015186D01*
X009943Y015098D01*
X009856Y015011D01*
X009768Y015011D01*
X009594Y015186D02*
X009594Y015273D01*
X009681Y015360D01*
X009768Y015360D01*
X009854Y015446D02*
X010029Y015272D01*
X010116Y015272D01*
X010203Y015359D01*
X010203Y015446D01*
X010029Y015621D01*
X009941Y015621D01*
X009854Y015533D01*
X009854Y015446D01*
X010290Y014969D02*
X010464Y015143D01*
X010550Y015229D02*
X010681Y015360D01*
X010768Y015360D01*
X010943Y015186D01*
X010943Y015098D01*
X010812Y014967D01*
X010550Y015229D01*
X010898Y015402D02*
X010898Y015577D01*
X011160Y015315D01*
X011072Y015228D02*
X011247Y015402D01*
X011550Y015229D02*
X011681Y015098D01*
X011725Y015229D01*
X011768Y015273D01*
X011856Y015273D01*
X011943Y015186D01*
X011943Y015098D01*
X011856Y015011D01*
X011768Y015011D01*
X011595Y015013D02*
X011421Y014838D01*
X011595Y014838D02*
X011421Y015013D01*
X011550Y015229D02*
X011725Y015404D01*
X011811Y015490D02*
X011985Y015315D01*
X012160Y015315D01*
X012160Y015490D01*
X011985Y015664D01*
X010726Y014882D02*
X010552Y014707D01*
X010290Y014969D01*
X010421Y014838D02*
X010508Y014925D01*
X010466Y014621D02*
X010291Y014447D01*
X010029Y014708D01*
X010943Y013253D02*
X010895Y013205D01*
X010895Y013108D01*
X010943Y013060D01*
X010943Y012958D02*
X010895Y012910D01*
X010895Y012813D01*
X010943Y012765D01*
X011137Y012765D01*
X011185Y012813D01*
X011185Y012910D01*
X011137Y012958D01*
X011185Y013060D02*
X010992Y013253D01*
X010943Y013253D01*
X011185Y013253D02*
X011185Y013060D01*
X012315Y013023D02*
X012315Y012900D01*
X012376Y012838D01*
X012376Y012717D02*
X012500Y012717D01*
X012562Y012655D01*
X012562Y012470D01*
X012685Y012470D02*
X012315Y012470D01*
X012315Y012655D01*
X012376Y012717D01*
X012500Y012962D02*
X012500Y013023D01*
X012562Y013085D01*
X012623Y013085D01*
X012685Y013023D01*
X012685Y012900D01*
X012623Y012838D01*
X012500Y013023D02*
X012438Y013085D01*
X012376Y013085D01*
X012315Y013023D01*
X012315Y012349D02*
X012685Y012349D01*
X012685Y012102D02*
X012315Y012102D01*
X012438Y012225D01*
X012315Y012349D01*
X012315Y011980D02*
X012315Y011733D01*
X012685Y011733D01*
X012685Y011980D01*
X012500Y011857D02*
X012500Y011733D01*
X012315Y011612D02*
X012315Y011365D01*
X012315Y011488D02*
X012685Y011488D01*
X015395Y012813D02*
X015443Y012765D01*
X015637Y012765D01*
X015685Y012813D01*
X015685Y012910D01*
X015637Y012958D01*
X015637Y013060D02*
X015685Y013108D01*
X015685Y013205D01*
X015637Y013253D01*
X015588Y013253D01*
X015540Y013205D01*
X015540Y013156D01*
X015540Y013205D02*
X015492Y013253D01*
X015443Y013253D01*
X015395Y013205D01*
X015395Y013108D01*
X015443Y013060D01*
X015443Y012958D02*
X015395Y012910D01*
X015395Y012813D01*
X016815Y012655D02*
X016815Y012470D01*
X017185Y012470D01*
X017185Y012349D02*
X016815Y012349D01*
X016938Y012225D01*
X016815Y012102D01*
X017185Y012102D01*
X017185Y011980D02*
X017185Y011733D01*
X016815Y011733D01*
X016815Y011980D01*
X017000Y011857D02*
X017000Y011733D01*
X016815Y011612D02*
X016815Y011365D01*
X016815Y011488D02*
X017185Y011488D01*
X017062Y012470D02*
X017062Y012655D01*
X017000Y012717D01*
X016876Y012717D01*
X016815Y012655D01*
X017000Y012838D02*
X017000Y013085D01*
X017185Y013023D02*
X016815Y013023D01*
X017000Y012838D01*
X019895Y012813D02*
X019943Y012765D01*
X020137Y012765D01*
X020185Y012813D01*
X020185Y012910D01*
X020137Y012958D01*
X020040Y013060D02*
X020040Y013253D01*
X020185Y013205D02*
X019895Y013205D01*
X020040Y013060D01*
X019943Y012958D02*
X019895Y012910D01*
X019895Y012813D01*
X021503Y012900D02*
X021565Y012900D01*
X021688Y012900D02*
X021997Y012900D01*
X022058Y012839D01*
X022058Y012777D01*
X021935Y012655D02*
X021750Y012655D01*
X021688Y012594D01*
X021688Y012409D01*
X021935Y012409D01*
X021935Y012287D02*
X021750Y012287D01*
X021688Y012225D01*
X021688Y012102D01*
X021812Y012102D02*
X021812Y012287D01*
X021935Y012287D02*
X021935Y012102D01*
X021873Y012040D01*
X021812Y012102D01*
X021935Y011919D02*
X021935Y011734D01*
X021873Y011672D01*
X021688Y011672D01*
X021688Y011550D02*
X021688Y011488D01*
X021812Y011365D01*
X021935Y011365D02*
X021688Y011365D01*
X021688Y011919D02*
X021997Y011919D01*
X022058Y011857D01*
X022058Y011795D01*
X021935Y013022D02*
X021688Y013022D01*
X021688Y013084D01*
X021750Y013146D01*
X021688Y013208D01*
X021750Y013269D01*
X021935Y013269D01*
X021935Y013146D02*
X021750Y013146D01*
X021750Y013391D02*
X021873Y013391D01*
X021935Y013452D01*
X021935Y013638D01*
X021935Y013759D02*
X021935Y013882D01*
X021935Y013821D02*
X021565Y013821D01*
X021565Y013759D01*
X021688Y013638D02*
X021688Y013452D01*
X021750Y013391D01*
X021873Y014005D02*
X021812Y014066D01*
X021812Y014251D01*
X021750Y014251D02*
X021935Y014251D01*
X021935Y014066D01*
X021873Y014005D01*
X021688Y014066D02*
X021688Y014190D01*
X021750Y014251D01*
X021688Y014373D02*
X021873Y014373D01*
X021935Y014435D01*
X021935Y014620D01*
X021688Y014620D01*
X021750Y014741D02*
X021873Y014741D01*
X021935Y014803D01*
X021935Y014988D01*
X021997Y014988D02*
X021688Y014988D01*
X021688Y014803D01*
X021750Y014741D01*
X022058Y014865D02*
X022058Y014926D01*
X021997Y014988D01*
X021935Y015110D02*
X021565Y015110D01*
X021688Y015171D02*
X021688Y015295D01*
X021750Y015356D01*
X021935Y015356D01*
X021935Y015478D02*
X021935Y015601D01*
X021935Y015540D02*
X021565Y015540D01*
X021565Y015478D01*
X021688Y015723D02*
X021688Y015785D01*
X021935Y015785D01*
X021935Y015723D02*
X021935Y015847D01*
X021935Y015969D02*
X021688Y015969D01*
X021688Y016154D01*
X021750Y016216D01*
X021935Y016216D01*
X021935Y016337D02*
X021873Y016337D01*
X021873Y016399D01*
X021935Y016399D01*
X021935Y016337D01*
X021873Y016521D02*
X021935Y016583D01*
X021935Y016768D01*
X021873Y016890D02*
X021935Y016951D01*
X021935Y017075D01*
X021873Y017137D01*
X021750Y017137D01*
X021688Y017075D01*
X021688Y016951D01*
X021750Y016890D01*
X021873Y016890D01*
X021688Y016768D02*
X021688Y016583D01*
X021750Y016521D01*
X021873Y016521D01*
X021935Y017258D02*
X021688Y017258D01*
X021688Y017320D01*
X021750Y017381D01*
X021688Y017443D01*
X021750Y017505D01*
X021935Y017505D01*
X021935Y017381D02*
X021750Y017381D01*
X020723Y017362D02*
X020662Y017362D01*
X020538Y017238D01*
X020417Y017238D02*
X020417Y017300D01*
X020355Y017362D01*
X020232Y017362D01*
X020170Y017300D01*
X020170Y017177D01*
X020232Y017115D01*
X020355Y017115D01*
X020417Y017238D02*
X020170Y017238D01*
X020049Y017177D02*
X020049Y017362D01*
X020049Y017177D02*
X019987Y017115D01*
X019925Y017177D01*
X019863Y017115D01*
X019802Y017177D01*
X019802Y017362D01*
X019680Y017300D02*
X019618Y017362D01*
X019495Y017362D01*
X019433Y017300D01*
X019433Y017177D01*
X019495Y017115D01*
X019618Y017115D01*
X019680Y017177D01*
X019680Y017300D01*
X019312Y017300D02*
X019250Y017238D01*
X019065Y017238D01*
X019065Y017115D02*
X019065Y017485D01*
X019250Y017485D01*
X019312Y017424D01*
X019312Y017300D01*
X019250Y016485D02*
X019127Y016485D01*
X019065Y016424D01*
X019065Y016362D01*
X019127Y016300D01*
X019250Y016300D01*
X019312Y016238D01*
X019312Y016177D01*
X019250Y016115D01*
X019127Y016115D01*
X019065Y016177D01*
X019312Y016424D02*
X019250Y016485D01*
X019433Y016362D02*
X019557Y016362D01*
X019495Y016424D02*
X019495Y016177D01*
X019557Y016115D01*
X019679Y016177D02*
X019741Y016238D01*
X019926Y016238D01*
X019926Y016300D02*
X019926Y016115D01*
X019741Y016115D01*
X019679Y016177D01*
X019741Y016362D02*
X019864Y016362D01*
X019926Y016300D01*
X020047Y016362D02*
X020171Y016362D01*
X020109Y016424D02*
X020109Y016177D01*
X020171Y016115D01*
X020293Y016177D02*
X020293Y016362D01*
X020293Y016177D02*
X020354Y016115D01*
X020540Y016115D01*
X020540Y016362D01*
X020661Y016300D02*
X020723Y016362D01*
X020908Y016362D01*
X020846Y016238D02*
X020723Y016238D01*
X020661Y016300D01*
X020661Y016115D02*
X020846Y016115D01*
X020908Y016177D01*
X020846Y016238D01*
X021503Y015785D02*
X021565Y015785D01*
X021688Y015171D02*
X021750Y015110D01*
X020538Y017115D02*
X020538Y017362D01*
X016014Y017388D02*
X016014Y017437D01*
X015965Y017485D01*
X015869Y017485D01*
X015820Y017437D01*
X015719Y017437D02*
X015671Y017485D01*
X015526Y017485D01*
X015526Y017195D01*
X015526Y017292D02*
X015671Y017292D01*
X015719Y017340D01*
X015719Y017437D01*
X015622Y017292D02*
X015719Y017195D01*
X015820Y017195D02*
X016014Y017388D01*
X016014Y017195D02*
X015820Y017195D01*
X015917Y016485D02*
X015917Y016195D01*
X015820Y016195D02*
X016014Y016195D01*
X015820Y016388D02*
X015917Y016485D01*
X015719Y016437D02*
X015719Y016340D01*
X015671Y016292D01*
X015526Y016292D01*
X015622Y016292D02*
X015719Y016195D01*
X015526Y016195D02*
X015526Y016485D01*
X015671Y016485D01*
X015719Y016437D01*
X014403Y015857D02*
X014403Y015808D01*
X014210Y015615D01*
X014403Y015615D01*
X014403Y015857D02*
X014355Y015905D01*
X014258Y015905D01*
X014210Y015857D01*
X014108Y015905D02*
X014108Y015663D01*
X014060Y015615D01*
X013963Y015615D01*
X013915Y015663D01*
X013915Y015905D01*
X015288Y017727D02*
X015288Y017974D01*
X015165Y017850D02*
X015412Y017850D01*
X014385Y018107D02*
X014337Y018059D01*
X014240Y018059D01*
X014192Y018107D01*
X014192Y018204D02*
X014289Y018252D01*
X014337Y018252D01*
X014385Y018204D01*
X014385Y018107D01*
X014192Y018204D02*
X014192Y018349D01*
X014385Y018349D01*
X014091Y018301D02*
X014042Y018349D01*
X013946Y018349D01*
X013897Y018301D01*
X013897Y018107D01*
X013946Y018059D01*
X014042Y018059D01*
X014091Y018107D01*
X012702Y019023D02*
X012702Y019110D01*
X012527Y019285D01*
X012440Y019285D01*
X012309Y019154D01*
X012571Y018892D01*
X012702Y019023D01*
X012485Y018806D02*
X012223Y019068D01*
X012049Y018894D02*
X012485Y018806D01*
X012310Y018632D02*
X012049Y018894D01*
X012006Y018764D02*
X011919Y018764D01*
X011832Y018677D01*
X011832Y018589D01*
X012006Y018415D01*
X012094Y018415D01*
X012181Y018502D01*
X012181Y018589D01*
X012094Y018677D01*
X012006Y018589D01*
X011615Y018936D02*
X011702Y019023D01*
X011702Y019110D01*
X011527Y019285D01*
X011440Y019285D01*
X011353Y019198D01*
X011353Y019110D01*
X011527Y018936D01*
X011615Y018936D01*
X011398Y018719D02*
X011310Y018981D01*
X011136Y018806D02*
X011398Y018719D01*
X011181Y018589D02*
X011137Y018633D01*
X011050Y018633D01*
X011006Y018589D01*
X011050Y018633D02*
X011050Y018720D01*
X011006Y018764D01*
X010919Y018764D01*
X010832Y018677D01*
X010832Y018589D01*
X011006Y018415D02*
X011094Y018415D01*
X011181Y018502D01*
X011181Y018589D01*
X010745Y019067D02*
X010484Y019067D01*
X010484Y018979D02*
X010484Y019329D01*
X010309Y019154D02*
X010571Y018892D01*
X010441Y018850D02*
X010441Y018763D01*
X010354Y018675D01*
X010267Y018675D01*
X010092Y018850D01*
X010092Y018937D01*
X010180Y019024D01*
X010267Y019024D01*
X010006Y018764D02*
X009919Y018764D01*
X009832Y018677D01*
X009832Y018589D01*
X009875Y018546D01*
X009963Y018546D01*
X010050Y018633D01*
X010137Y018633D01*
X010181Y018589D01*
X010181Y018502D01*
X010094Y018415D01*
X010006Y018415D01*
X009441Y018763D02*
X009354Y018675D01*
X009267Y018675D01*
X009181Y018589D02*
X009181Y018502D01*
X009094Y018415D01*
X009006Y018415D01*
X008832Y018589D01*
X008832Y018677D01*
X008919Y018764D01*
X009006Y018764D01*
X009092Y018850D02*
X009136Y018806D01*
X009223Y018806D01*
X009310Y018894D01*
X009398Y018894D01*
X009441Y018850D01*
X009441Y018763D01*
X009440Y019023D02*
X009615Y019198D01*
X009702Y019023D02*
X009440Y019285D01*
X009440Y019023D01*
X009267Y019024D02*
X009180Y019024D01*
X009092Y018937D01*
X009092Y018850D01*
X008745Y019067D02*
X008571Y018892D01*
X008571Y019241D01*
X008527Y019285D01*
X008440Y019285D01*
X008353Y019198D01*
X008353Y019110D01*
X008267Y019024D02*
X008180Y019024D01*
X008092Y018937D01*
X008092Y018850D01*
X008136Y018806D01*
X008223Y018806D01*
X008310Y018894D01*
X008398Y018894D01*
X008441Y018850D01*
X008441Y018763D01*
X008354Y018675D01*
X008267Y018675D01*
X008181Y018589D02*
X008181Y018502D01*
X008094Y018415D01*
X008006Y018415D01*
X007832Y018589D01*
X007832Y018677D01*
X007919Y018764D01*
X008006Y018764D01*
X005997Y017954D02*
X005997Y017664D01*
X005900Y017664D02*
X006094Y017664D01*
X005900Y017858D02*
X005997Y017954D01*
X005799Y017954D02*
X005799Y017712D01*
X005751Y017664D01*
X005654Y017664D01*
X005606Y017712D01*
X005606Y017954D01*
X004703Y018463D02*
X004655Y018415D01*
X004558Y018415D01*
X004510Y018463D01*
X004408Y018415D02*
X004312Y018512D01*
X004360Y018512D02*
X004215Y018512D01*
X004215Y018415D02*
X004215Y018705D01*
X004360Y018705D01*
X004408Y018657D01*
X004408Y018560D01*
X004360Y018512D01*
X004510Y018657D02*
X004558Y018705D01*
X004655Y018705D01*
X004703Y018657D01*
X004703Y018608D01*
X004655Y018560D01*
X004703Y018512D01*
X004703Y018463D01*
X004655Y018560D02*
X004606Y018560D01*
X011569Y019414D02*
X011788Y019196D01*
X011875Y019196D01*
X011962Y019283D01*
X011962Y019371D01*
X011744Y019589D01*
X011830Y019675D02*
X012004Y019849D01*
X011917Y019762D02*
X012179Y019500D01*
X012676Y008749D02*
X012738Y008749D01*
X012800Y008687D01*
X012862Y008749D01*
X012923Y008749D01*
X012985Y008687D01*
X012985Y008563D01*
X012923Y008502D01*
X012923Y008380D02*
X012985Y008318D01*
X012985Y008195D01*
X012923Y008133D01*
X012676Y008133D01*
X012615Y008195D01*
X012615Y008318D01*
X012676Y008380D01*
X012676Y008502D02*
X012615Y008563D01*
X012615Y008687D01*
X012676Y008749D01*
X012800Y008687D02*
X012800Y008625D01*
X012615Y008012D02*
X012615Y007765D01*
X012615Y007888D02*
X012985Y007888D01*
X017115Y007888D02*
X017485Y007888D01*
X017115Y007765D02*
X017115Y008012D01*
X017176Y008133D02*
X017423Y008133D01*
X017485Y008195D01*
X017485Y008318D01*
X017423Y008380D01*
X017300Y008502D02*
X017115Y008687D01*
X017485Y008687D01*
X017300Y008749D02*
X017300Y008502D01*
X017176Y008380D02*
X017115Y008318D01*
X017115Y008195D01*
X017176Y008133D01*
X021715Y007367D02*
X021715Y007244D01*
X021776Y007182D01*
X021715Y007367D02*
X021776Y007429D01*
X021838Y007429D01*
X022085Y007182D01*
X022085Y007429D01*
X022085Y007061D02*
X022085Y006814D01*
X022085Y006937D02*
X021715Y006937D01*
X021838Y006814D01*
X021776Y006693D02*
X022023Y006446D01*
X022085Y006507D01*
X022085Y006631D01*
X022023Y006693D01*
X021776Y006693D01*
X021715Y006631D01*
X021715Y006507D01*
X021776Y006446D01*
X022023Y006446D01*
X022085Y006324D02*
X022085Y006077D01*
X021838Y006324D01*
X021776Y006324D01*
X021715Y006263D01*
X021715Y006139D01*
X021776Y006077D01*
X021900Y005956D02*
X021900Y005709D01*
X022085Y005588D02*
X022085Y005341D01*
X022085Y005464D02*
X021715Y005464D01*
X021838Y005341D01*
X021776Y005219D02*
X022023Y004972D01*
X022085Y005034D01*
X022085Y005158D01*
X022023Y005219D01*
X021776Y005219D01*
X021715Y005158D01*
X021715Y005034D01*
X021776Y004972D01*
X022023Y004972D01*
X022023Y004483D02*
X021776Y004483D01*
X022023Y004236D01*
X022085Y004298D01*
X022085Y004421D01*
X022023Y004483D01*
X021776Y004483D02*
X021715Y004421D01*
X021715Y004298D01*
X021776Y004236D01*
X022023Y004236D01*
X022023Y004113D02*
X022085Y004113D01*
X022085Y004052D01*
X022023Y004052D01*
X022023Y004113D01*
X022085Y003930D02*
X022085Y003683D01*
X021838Y003930D01*
X021776Y003930D01*
X021715Y003868D01*
X021715Y003745D01*
X021776Y003683D01*
X021715Y003562D02*
X021962Y003562D01*
X022085Y003438D01*
X021962Y003315D01*
X021715Y003315D01*
X008485Y007988D02*
X008115Y007988D01*
X008115Y007865D02*
X008115Y008112D01*
X008176Y008233D02*
X008423Y008233D01*
X008485Y008295D01*
X008485Y008418D01*
X008423Y008480D01*
X008485Y008602D02*
X008238Y008849D01*
X008176Y008849D01*
X008115Y008787D01*
X008115Y008663D01*
X008176Y008602D01*
X008176Y008480D02*
X008115Y008418D01*
X008115Y008295D01*
X008176Y008233D01*
X008485Y008602D02*
X008485Y008849D01*
D12*
X008023Y009353D02*
X008023Y009814D01*
X007870Y009814D02*
X008177Y009814D01*
X008330Y009584D02*
X008637Y009584D01*
X008177Y007255D02*
X007870Y007255D01*
X008023Y007255D02*
X008023Y006794D01*
X008330Y007025D02*
X008637Y007025D01*
X008484Y007178D02*
X008484Y006871D01*
X012370Y007255D02*
X012677Y007255D01*
X012523Y007255D02*
X012523Y006794D01*
X012830Y007025D02*
X013137Y007025D01*
X012984Y007178D02*
X012984Y006871D01*
X012523Y009353D02*
X012523Y009814D01*
X012370Y009814D02*
X012677Y009814D01*
X012830Y009584D02*
X013137Y009584D01*
X016870Y009814D02*
X017177Y009814D01*
X017023Y009814D02*
X017023Y009353D01*
X017330Y009584D02*
X017637Y009584D01*
X017177Y007255D02*
X016870Y007255D01*
X017023Y007255D02*
X017023Y006794D01*
X017330Y007025D02*
X017637Y007025D01*
X017484Y007178D02*
X017484Y006871D01*
X004137Y007025D02*
X003830Y007025D01*
X003984Y007178D02*
X003984Y006871D01*
X003523Y006794D02*
X003523Y007255D01*
X003370Y007255D02*
X003677Y007255D01*
X001580Y007351D02*
X001273Y007351D01*
X001427Y007351D02*
X001273Y007505D01*
X001273Y007581D01*
X001273Y007735D02*
X001273Y007812D01*
X001350Y007888D01*
X001273Y007965D01*
X001350Y008042D01*
X001580Y008042D01*
X001580Y007888D02*
X001350Y007888D01*
X001273Y007735D02*
X001580Y007735D01*
X001503Y008195D02*
X001350Y008195D01*
X001273Y008272D01*
X001273Y008425D01*
X001350Y008502D01*
X001503Y008502D01*
X001580Y008425D01*
X001580Y008272D01*
X001503Y008195D01*
X001503Y008656D02*
X001350Y008656D01*
X001273Y008732D01*
X001273Y008963D01*
X001350Y009116D02*
X001503Y009116D01*
X001580Y009193D01*
X001580Y009346D01*
X001503Y009423D01*
X001350Y009423D01*
X001273Y009346D01*
X001273Y009193D01*
X001350Y009116D01*
X001580Y008963D02*
X001580Y008732D01*
X001503Y008656D01*
X001503Y009576D02*
X001273Y009576D01*
X001503Y009576D02*
X001580Y009653D01*
X001580Y009883D01*
X001273Y009883D01*
X001273Y010037D02*
X001273Y010267D01*
X001350Y010344D01*
X001503Y010344D01*
X001580Y010267D01*
X001580Y010037D01*
X001733Y010037D02*
X001273Y010037D01*
X001120Y010497D02*
X001120Y010574D01*
X001580Y010574D01*
X001580Y010497D02*
X001580Y010651D01*
X001503Y010804D02*
X001350Y010804D01*
X001273Y010881D01*
X001273Y011034D01*
X001350Y011111D01*
X001427Y011111D01*
X001427Y010804D01*
X001503Y010804D02*
X001580Y010881D01*
X001580Y011034D01*
X001580Y011725D02*
X001580Y011878D01*
X001580Y011802D02*
X001120Y011802D01*
X001120Y011878D02*
X001120Y011725D01*
X001273Y012032D02*
X001273Y012262D01*
X001350Y012339D01*
X001580Y012339D01*
X001503Y012569D02*
X001196Y012569D01*
X001273Y012492D02*
X001273Y012646D01*
X001350Y012799D02*
X001273Y012876D01*
X001273Y013029D01*
X001350Y013106D01*
X001427Y013106D01*
X001427Y012799D01*
X001503Y012799D02*
X001350Y012799D01*
X001503Y012799D02*
X001580Y012876D01*
X001580Y013029D01*
X001580Y013260D02*
X001273Y013260D01*
X001273Y013413D02*
X001273Y013490D01*
X001273Y013413D02*
X001427Y013260D01*
X001350Y013643D02*
X001350Y013797D01*
X001196Y013720D02*
X001120Y013797D01*
X001196Y013720D02*
X001580Y013720D01*
X001503Y013950D02*
X001427Y014027D01*
X001427Y014257D01*
X001350Y014257D02*
X001580Y014257D01*
X001580Y014027D01*
X001503Y013950D01*
X001273Y014027D02*
X001273Y014180D01*
X001350Y014257D01*
X001350Y014411D02*
X001503Y014411D01*
X001580Y014487D01*
X001580Y014717D01*
X001503Y014871D02*
X001350Y014871D01*
X001273Y014948D01*
X001273Y015101D01*
X001350Y015178D01*
X001427Y015178D01*
X001427Y014871D01*
X001503Y014871D02*
X001580Y014948D01*
X001580Y015101D01*
X001273Y014717D02*
X001273Y014487D01*
X001350Y014411D01*
X001580Y012646D02*
X001503Y012569D01*
X001580Y012032D02*
X001273Y012032D01*
X003370Y009814D02*
X003677Y009814D01*
X003523Y009814D02*
X003523Y009353D01*
X003830Y009584D02*
X004137Y009584D01*
X001580Y007121D02*
X001580Y006968D01*
X001503Y006891D01*
X001350Y006891D01*
X001273Y006968D01*
X001273Y007121D01*
X001350Y007198D01*
X001427Y007198D01*
X001427Y006891D01*
X001350Y006737D02*
X001580Y006737D01*
X001350Y006737D02*
X001273Y006661D01*
X001273Y006507D01*
X001350Y006430D01*
X001120Y006430D02*
X001580Y006430D01*
X001580Y006123D02*
X001120Y006123D01*
X001120Y005970D02*
X001120Y006277D01*
D13*
X003950Y011700D02*
X003950Y013000D01*
X004100Y011850D02*
X004102Y011870D01*
X004108Y011888D01*
X004117Y011906D01*
X004129Y011921D01*
X004144Y011933D01*
X004162Y011942D01*
X004180Y011948D01*
X004200Y011950D01*
X004220Y011948D01*
X004238Y011942D01*
X004256Y011933D01*
X004271Y011921D01*
X004283Y011906D01*
X004292Y011888D01*
X004298Y011870D01*
X004300Y011850D01*
X004298Y011830D01*
X004292Y011812D01*
X004283Y011794D01*
X004271Y011779D01*
X004256Y011767D01*
X004238Y011758D01*
X004220Y011752D01*
X004200Y011750D01*
X004180Y011752D01*
X004162Y011758D01*
X004144Y011767D01*
X004129Y011779D01*
X004117Y011794D01*
X004108Y011812D01*
X004102Y011830D01*
X004100Y011850D01*
X005950Y011700D02*
X005950Y013000D01*
X008450Y013000D02*
X008450Y011700D01*
X008600Y011850D02*
X008602Y011870D01*
X008608Y011888D01*
X008617Y011906D01*
X008629Y011921D01*
X008644Y011933D01*
X008662Y011942D01*
X008680Y011948D01*
X008700Y011950D01*
X008720Y011948D01*
X008738Y011942D01*
X008756Y011933D01*
X008771Y011921D01*
X008783Y011906D01*
X008792Y011888D01*
X008798Y011870D01*
X008800Y011850D01*
X008798Y011830D01*
X008792Y011812D01*
X008783Y011794D01*
X008771Y011779D01*
X008756Y011767D01*
X008738Y011758D01*
X008720Y011752D01*
X008700Y011750D01*
X008680Y011752D01*
X008662Y011758D01*
X008644Y011767D01*
X008629Y011779D01*
X008617Y011794D01*
X008608Y011812D01*
X008602Y011830D01*
X008600Y011850D01*
X010450Y011700D02*
X010450Y013000D01*
X012950Y013000D02*
X012950Y011700D01*
X013100Y011850D02*
X013102Y011870D01*
X013108Y011888D01*
X013117Y011906D01*
X013129Y011921D01*
X013144Y011933D01*
X013162Y011942D01*
X013180Y011948D01*
X013200Y011950D01*
X013220Y011948D01*
X013238Y011942D01*
X013256Y011933D01*
X013271Y011921D01*
X013283Y011906D01*
X013292Y011888D01*
X013298Y011870D01*
X013300Y011850D01*
X013298Y011830D01*
X013292Y011812D01*
X013283Y011794D01*
X013271Y011779D01*
X013256Y011767D01*
X013238Y011758D01*
X013220Y011752D01*
X013200Y011750D01*
X013180Y011752D01*
X013162Y011758D01*
X013144Y011767D01*
X013129Y011779D01*
X013117Y011794D01*
X013108Y011812D01*
X013102Y011830D01*
X013100Y011850D01*
X014950Y011700D02*
X014950Y013000D01*
X017450Y013000D02*
X017450Y011700D01*
X017600Y011850D02*
X017602Y011870D01*
X017608Y011888D01*
X017617Y011906D01*
X017629Y011921D01*
X017644Y011933D01*
X017662Y011942D01*
X017680Y011948D01*
X017700Y011950D01*
X017720Y011948D01*
X017738Y011942D01*
X017756Y011933D01*
X017771Y011921D01*
X017783Y011906D01*
X017792Y011888D01*
X017798Y011870D01*
X017800Y011850D01*
X017798Y011830D01*
X017792Y011812D01*
X017783Y011794D01*
X017771Y011779D01*
X017756Y011767D01*
X017738Y011758D01*
X017720Y011752D01*
X017700Y011750D01*
X017680Y011752D01*
X017662Y011758D01*
X017644Y011767D01*
X017629Y011779D01*
X017617Y011794D01*
X017608Y011812D01*
X017602Y011830D01*
X017600Y011850D01*
X019450Y011700D02*
X019450Y013000D01*
X008300Y015800D02*
X007800Y015800D01*
D14*
X007770Y006550D02*
X007770Y003850D01*
X005970Y003850D02*
X005970Y006250D01*
X003270Y006550D02*
X003270Y003850D01*
X010470Y003850D02*
X010470Y006250D01*
X012270Y006550D02*
X012270Y003850D01*
X014970Y003850D02*
X014970Y006250D01*
X016770Y006550D02*
X016770Y003850D01*
X019470Y003850D02*
X019470Y006250D01*
D15*
X020750Y001400D02*
X020752Y001450D01*
X020758Y001500D01*
X020768Y001550D01*
X020781Y001598D01*
X020798Y001646D01*
X020819Y001692D01*
X020843Y001736D01*
X020871Y001778D01*
X020902Y001818D01*
X020936Y001855D01*
X020973Y001890D01*
X021012Y001921D01*
X021053Y001950D01*
X021097Y001975D01*
X021143Y001997D01*
X021190Y002015D01*
X021238Y002029D01*
X021287Y002040D01*
X021337Y002047D01*
X021387Y002050D01*
X021438Y002049D01*
X021488Y002044D01*
X021538Y002035D01*
X021586Y002023D01*
X021634Y002006D01*
X021680Y001986D01*
X021725Y001963D01*
X021768Y001936D01*
X021808Y001906D01*
X021846Y001873D01*
X021881Y001837D01*
X021914Y001798D01*
X021943Y001757D01*
X021969Y001714D01*
X021992Y001669D01*
X022011Y001622D01*
X022026Y001574D01*
X022038Y001525D01*
X022046Y001475D01*
X022050Y001425D01*
X022050Y001375D01*
X022046Y001325D01*
X022038Y001275D01*
X022026Y001226D01*
X022011Y001178D01*
X021992Y001131D01*
X021969Y001086D01*
X021943Y001043D01*
X021914Y001002D01*
X021881Y000963D01*
X021846Y000927D01*
X021808Y000894D01*
X021768Y000864D01*
X021725Y000837D01*
X021680Y000814D01*
X021634Y000794D01*
X021586Y000777D01*
X021538Y000765D01*
X021488Y000756D01*
X021438Y000751D01*
X021387Y000750D01*
X021337Y000753D01*
X021287Y000760D01*
X021238Y000771D01*
X021190Y000785D01*
X021143Y000803D01*
X021097Y000825D01*
X021053Y000850D01*
X021012Y000879D01*
X020973Y000910D01*
X020936Y000945D01*
X020902Y000982D01*
X020871Y001022D01*
X020843Y001064D01*
X020819Y001108D01*
X020798Y001154D01*
X020781Y001202D01*
X020768Y001250D01*
X020758Y001300D01*
X020752Y001350D01*
X020750Y001400D01*
X000750Y001400D02*
X000752Y001450D01*
X000758Y001500D01*
X000768Y001550D01*
X000781Y001598D01*
X000798Y001646D01*
X000819Y001692D01*
X000843Y001736D01*
X000871Y001778D01*
X000902Y001818D01*
X000936Y001855D01*
X000973Y001890D01*
X001012Y001921D01*
X001053Y001950D01*
X001097Y001975D01*
X001143Y001997D01*
X001190Y002015D01*
X001238Y002029D01*
X001287Y002040D01*
X001337Y002047D01*
X001387Y002050D01*
X001438Y002049D01*
X001488Y002044D01*
X001538Y002035D01*
X001586Y002023D01*
X001634Y002006D01*
X001680Y001986D01*
X001725Y001963D01*
X001768Y001936D01*
X001808Y001906D01*
X001846Y001873D01*
X001881Y001837D01*
X001914Y001798D01*
X001943Y001757D01*
X001969Y001714D01*
X001992Y001669D01*
X002011Y001622D01*
X002026Y001574D01*
X002038Y001525D01*
X002046Y001475D01*
X002050Y001425D01*
X002050Y001375D01*
X002046Y001325D01*
X002038Y001275D01*
X002026Y001226D01*
X002011Y001178D01*
X001992Y001131D01*
X001969Y001086D01*
X001943Y001043D01*
X001914Y001002D01*
X001881Y000963D01*
X001846Y000927D01*
X001808Y000894D01*
X001768Y000864D01*
X001725Y000837D01*
X001680Y000814D01*
X001634Y000794D01*
X001586Y000777D01*
X001538Y000765D01*
X001488Y000756D01*
X001438Y000751D01*
X001387Y000750D01*
X001337Y000753D01*
X001287Y000760D01*
X001238Y000771D01*
X001190Y000785D01*
X001143Y000803D01*
X001097Y000825D01*
X001053Y000850D01*
X001012Y000879D01*
X000973Y000910D01*
X000936Y000945D01*
X000902Y000982D01*
X000871Y001022D01*
X000843Y001064D01*
X000819Y001108D01*
X000798Y001154D01*
X000781Y001202D01*
X000768Y001250D01*
X000758Y001300D01*
X000752Y001350D01*
X000750Y001400D01*
X000750Y018900D02*
X000752Y018950D01*
X000758Y019000D01*
X000768Y019050D01*
X000781Y019098D01*
X000798Y019146D01*
X000819Y019192D01*
X000843Y019236D01*
X000871Y019278D01*
X000902Y019318D01*
X000936Y019355D01*
X000973Y019390D01*
X001012Y019421D01*
X001053Y019450D01*
X001097Y019475D01*
X001143Y019497D01*
X001190Y019515D01*
X001238Y019529D01*
X001287Y019540D01*
X001337Y019547D01*
X001387Y019550D01*
X001438Y019549D01*
X001488Y019544D01*
X001538Y019535D01*
X001586Y019523D01*
X001634Y019506D01*
X001680Y019486D01*
X001725Y019463D01*
X001768Y019436D01*
X001808Y019406D01*
X001846Y019373D01*
X001881Y019337D01*
X001914Y019298D01*
X001943Y019257D01*
X001969Y019214D01*
X001992Y019169D01*
X002011Y019122D01*
X002026Y019074D01*
X002038Y019025D01*
X002046Y018975D01*
X002050Y018925D01*
X002050Y018875D01*
X002046Y018825D01*
X002038Y018775D01*
X002026Y018726D01*
X002011Y018678D01*
X001992Y018631D01*
X001969Y018586D01*
X001943Y018543D01*
X001914Y018502D01*
X001881Y018463D01*
X001846Y018427D01*
X001808Y018394D01*
X001768Y018364D01*
X001725Y018337D01*
X001680Y018314D01*
X001634Y018294D01*
X001586Y018277D01*
X001538Y018265D01*
X001488Y018256D01*
X001438Y018251D01*
X001387Y018250D01*
X001337Y018253D01*
X001287Y018260D01*
X001238Y018271D01*
X001190Y018285D01*
X001143Y018303D01*
X001097Y018325D01*
X001053Y018350D01*
X001012Y018379D01*
X000973Y018410D01*
X000936Y018445D01*
X000902Y018482D01*
X000871Y018522D01*
X000843Y018564D01*
X000819Y018608D01*
X000798Y018654D01*
X000781Y018702D01*
X000768Y018750D01*
X000758Y018800D01*
X000752Y018850D01*
X000750Y018900D01*
X020750Y018900D02*
X020752Y018950D01*
X020758Y019000D01*
X020768Y019050D01*
X020781Y019098D01*
X020798Y019146D01*
X020819Y019192D01*
X020843Y019236D01*
X020871Y019278D01*
X020902Y019318D01*
X020936Y019355D01*
X020973Y019390D01*
X021012Y019421D01*
X021053Y019450D01*
X021097Y019475D01*
X021143Y019497D01*
X021190Y019515D01*
X021238Y019529D01*
X021287Y019540D01*
X021337Y019547D01*
X021387Y019550D01*
X021438Y019549D01*
X021488Y019544D01*
X021538Y019535D01*
X021586Y019523D01*
X021634Y019506D01*
X021680Y019486D01*
X021725Y019463D01*
X021768Y019436D01*
X021808Y019406D01*
X021846Y019373D01*
X021881Y019337D01*
X021914Y019298D01*
X021943Y019257D01*
X021969Y019214D01*
X021992Y019169D01*
X022011Y019122D01*
X022026Y019074D01*
X022038Y019025D01*
X022046Y018975D01*
X022050Y018925D01*
X022050Y018875D01*
X022046Y018825D01*
X022038Y018775D01*
X022026Y018726D01*
X022011Y018678D01*
X021992Y018631D01*
X021969Y018586D01*
X021943Y018543D01*
X021914Y018502D01*
X021881Y018463D01*
X021846Y018427D01*
X021808Y018394D01*
X021768Y018364D01*
X021725Y018337D01*
X021680Y018314D01*
X021634Y018294D01*
X021586Y018277D01*
X021538Y018265D01*
X021488Y018256D01*
X021438Y018251D01*
X021387Y018250D01*
X021337Y018253D01*
X021287Y018260D01*
X021238Y018271D01*
X021190Y018285D01*
X021143Y018303D01*
X021097Y018325D01*
X021053Y018350D01*
X021012Y018379D01*
X020973Y018410D01*
X020936Y018445D01*
X020902Y018482D01*
X020871Y018522D01*
X020843Y018564D01*
X020819Y018608D01*
X020798Y018654D01*
X020781Y018702D01*
X020768Y018750D01*
X020758Y018800D01*
X020752Y018850D01*
X020750Y018900D01*
D16*
X014469Y017110D02*
X014469Y017073D01*
X014469Y017110D02*
X013831Y017110D01*
X013831Y017073D01*
X013831Y016756D02*
X013831Y016719D01*
X013831Y016381D02*
X013831Y016344D01*
X013831Y016027D02*
X013831Y015990D01*
X014469Y015990D01*
X014469Y016027D01*
X014469Y016344D02*
X014469Y016756D01*
X012550Y016300D02*
X012550Y017800D01*
X012300Y018050D01*
X011800Y018050D01*
X011550Y017800D01*
X011550Y016300D01*
X011800Y016050D01*
X012300Y016050D01*
X012550Y016300D01*
X011550Y016300D02*
X011300Y016050D01*
X010800Y016050D01*
X010550Y016300D01*
X010550Y017800D01*
X010800Y018050D01*
X011300Y018050D01*
X011550Y017800D01*
X010550Y017800D02*
X010300Y018050D01*
X009800Y018050D01*
X009550Y017800D01*
X009550Y016300D01*
X009800Y016050D01*
X010300Y016050D01*
X010550Y016300D01*
X009550Y016300D02*
X009300Y016050D01*
X008800Y016050D01*
X008550Y016300D01*
X008550Y017800D01*
X008800Y018050D01*
X009300Y018050D01*
X009550Y017800D01*
X008550Y017800D02*
X008300Y018050D01*
X007800Y018050D01*
X007550Y017800D01*
X007550Y016300D01*
X007800Y016050D01*
X008300Y016050D01*
X008550Y016300D01*
X006149Y015526D02*
X004351Y015526D01*
X004590Y017259D02*
X004592Y017285D01*
X004598Y017311D01*
X004607Y017335D01*
X004620Y017358D01*
X004636Y017379D01*
X004655Y017397D01*
X004676Y017413D01*
X004700Y017425D01*
X004724Y017433D01*
X004750Y017438D01*
X004777Y017439D01*
X004803Y017436D01*
X004828Y017429D01*
X004852Y017419D01*
X004875Y017405D01*
X004895Y017389D01*
X004912Y017369D01*
X004927Y017347D01*
X004938Y017323D01*
X004946Y017298D01*
X004950Y017272D01*
X004950Y017246D01*
X004946Y017220D01*
X004938Y017195D01*
X004927Y017171D01*
X004912Y017149D01*
X004895Y017129D01*
X004875Y017113D01*
X004852Y017099D01*
X004828Y017089D01*
X004803Y017082D01*
X004777Y017079D01*
X004750Y017080D01*
X004724Y017085D01*
X004700Y017093D01*
X004676Y017105D01*
X004655Y017121D01*
X004636Y017139D01*
X004620Y017160D01*
X004607Y017183D01*
X004598Y017207D01*
X004592Y017233D01*
X004590Y017259D01*
X004351Y017574D02*
X006149Y017574D01*
D17*
X010050Y016550D03*
D18*
X018211Y016350D03*
X018211Y017350D03*
M02*
