%
M48
M72
T01C0.0150
T02C0.0400
T03C0.0700
T04C0.1300
%
T01
X11400Y13506
X9302Y14171
X7963Y15794
X7028Y16455
X5650Y16150
X5103Y16649
X5650Y16950
X4772Y17517
X4779Y15708
X5121Y14083
X14150Y16550
X14372Y14460
T02
X12050Y16550
X11050Y16550
X10050Y16550
X10050Y17550
X11050Y17550
X12050Y17550
X9050Y17550
X8050Y17550
X8050Y16550
X9050Y16550
T03
X9850Y9550
X9850Y7050
X14350Y7050
X14350Y9550
X18850Y9550
X18850Y7050
X19470Y2050
X16770Y2050
X14970Y2050
X12270Y2050
X10470Y2050
X7770Y2050
X5970Y2050
X3270Y2050
X5350Y7050
X5350Y9550
T04
X1400Y1400
X1400Y18900
X21400Y18900
X21400Y1400
M30
