G75*
G70*
%OFA0B0*%
%FSLAX24Y24*%
%IPPOS*%
%LPD*%
%AMOC8*
5,1,8,0,0,1.08239X$1,22.5*
%
%ADD10C,0.1130*%
%ADD11C,0.1380*%
%ADD12OC8,0.0680*%
D10*
X003270Y002050D02*
X003270Y003100D01*
X005970Y003100D02*
X005970Y002050D01*
X007770Y002050D02*
X007770Y003100D01*
X010470Y003100D02*
X010470Y002050D01*
X012270Y002050D02*
X012270Y003100D01*
X014970Y003100D02*
X014970Y002050D01*
X016770Y002050D02*
X016770Y003100D01*
X019470Y003100D02*
X019470Y002050D01*
X019375Y007050D02*
X018325Y007050D01*
X018325Y009550D02*
X019375Y009550D01*
X014875Y009550D02*
X013825Y009550D01*
X013825Y007050D02*
X014875Y007050D01*
X010375Y007050D02*
X009325Y007050D01*
X009325Y009550D02*
X010375Y009550D01*
X005875Y009550D02*
X004825Y009550D01*
X004825Y007050D02*
X005875Y007050D01*
D11*
X001400Y001400D03*
X001400Y018900D03*
X021400Y018900D03*
X021400Y001400D03*
D12*
X012050Y016550D03*
X011050Y016550D03*
X010050Y016550D03*
X010050Y017550D03*
X011050Y017550D03*
X012050Y017550D03*
X009050Y017550D03*
X008050Y017550D03*
X008050Y016550D03*
X009050Y016550D03*
M02*
